<?xml version="1.0" encoding="UTF-8" standalone="no"?>
<!-- Created with Inkscape (http://www.inkscape.org/) -->

<svg
   width="7.6539803mm"
   height="6.670053mm"
   viewBox="0 0 7.6539802 6.6700532"
   version="1.1"
   id="svg1"
   sodipodi:docname="offshore_wind.svg"
   inkscape:version="1.3 (0e150ed6c4, 2023-07-21)"
   xml:space="preserve"
   inkscape:export-filename="..\..\pyflow_acdc\folium_images\offshore_wind.png"
   inkscape:export-xdpi="96"
   inkscape:export-ydpi="96"
   xmlns:inkscape="http://www.inkscape.org/namespaces/inkscape"
   xmlns:sodipodi="http://sodipodi.sourceforge.net/DTD/sodipodi-0.dtd"
   xmlns="http://www.w3.org/2000/svg"
   xmlns:svg="http://www.w3.org/2000/svg"><sodipodi:namedview
     id="namedview1"
     pagecolor="#3d3d3d"
     bordercolor="#000000"
     borderopacity="0.25"
     inkscape:showpageshadow="2"
     inkscape:pageopacity="0.0"
     inkscape:pagecheckerboard="0"
     inkscape:deskcolor="#d1d1d1"
     inkscape:document-units="mm"
     inkscape:zoom="23.17643"
     inkscape:cx="10.333774"
     inkscape:cy="4.9835113"
     inkscape:window-width="1920"
     inkscape:window-height="1009"
     inkscape:window-x="1912"
     inkscape:window-y="-8"
     inkscape:window-maximized="1"
     inkscape:current-layer="layer1" /><defs
     id="defs1"><inkscape:path-effect
       effect="bspline"
       id="path-effect2"
       is_visible="true"
       lpeversion="1.3"
       weight="33.333333"
       steps="2"
       helper_size="0"
       apply_no_weight="true"
       apply_with_weight="true"
       only_selected="false"
       uniform="false" /><inkscape:path-effect
       effect="bspline"
       id="path-effect2-2"
       is_visible="true"
       lpeversion="1.3"
       weight="33.333333"
       steps="2"
       helper_size="0"
       apply_no_weight="true"
       apply_with_weight="true"
       only_selected="false"
       uniform="false" /><inkscape:path-effect
       effect="bspline"
       id="path-effect2-3"
       is_visible="true"
       lpeversion="1.3"
       weight="33.333333"
       steps="2"
       helper_size="0"
       apply_no_weight="true"
       apply_with_weight="true"
       only_selected="false"
       uniform="false" /><inkscape:path-effect
       effect="bspline"
       id="path-effect2-3-8"
       is_visible="true"
       lpeversion="1.3"
       weight="33.333333"
       steps="2"
       helper_size="0"
       apply_no_weight="true"
       apply_with_weight="true"
       only_selected="false"
       uniform="false" /><inkscape:path-effect
       effect="bspline"
       id="path-effect2-2-4"
       is_visible="true"
       lpeversion="1.3"
       weight="33.333333"
       steps="2"
       helper_size="0"
       apply_no_weight="true"
       apply_with_weight="true"
       only_selected="false"
       uniform="false" /><inkscape:path-effect
       effect="bspline"
       id="path-effect2-37"
       is_visible="true"
       lpeversion="1.3"
       weight="33.333333"
       steps="2"
       helper_size="0"
       apply_no_weight="true"
       apply_with_weight="true"
       only_selected="false"
       uniform="false" /><inkscape:path-effect
       effect="bspline"
       id="path-effect2-37-5"
       is_visible="true"
       lpeversion="1.3"
       weight="33.333333"
       steps="2"
       helper_size="0"
       apply_no_weight="true"
       apply_with_weight="true"
       only_selected="false"
       uniform="false" /><inkscape:path-effect
       effect="bspline"
       id="path-effect2-2-4-5"
       is_visible="true"
       lpeversion="1.3"
       weight="33.333333"
       steps="2"
       helper_size="0"
       apply_no_weight="true"
       apply_with_weight="true"
       only_selected="false"
       uniform="false" /><inkscape:path-effect
       effect="bspline"
       id="path-effect2-3-8-1"
       is_visible="true"
       lpeversion="1.3"
       weight="33.333333"
       steps="2"
       helper_size="0"
       apply_no_weight="true"
       apply_with_weight="true"
       only_selected="false"
       uniform="false" /></defs><g
     inkscape:label="Layer 1"
     inkscape:groupmode="layer"
     id="layer1"
     transform="translate(-73.667356,-132.84361)"><g
       id="g5"
       transform="matrix(0.72578709,0,0,0.72578709,20.200541,36.427435)"
       style="stroke:#ffffff"><path
         id="path3"
         style="fill:none;stroke:#ffffff;stroke-width:0.264583px;stroke-linecap:round;stroke-linejoin:round;stroke-opacity:1"
         d="m 77.114449,135.00555 c -1.07583,-0.34115 -2.613266,-1.07827 -3.314817,-2.02103 1.17854,0.24033 2.77611,0.90283 3.480955,1.79508" /><path
         id="path10217-5-5"
         style="fill:none;stroke:#ffffff;stroke-width:0.264583px;stroke-linecap:round;stroke-linejoin:round;stroke-opacity:1"
         d="m 77.77008,134.82255 c 0.924391,-0.9347 2.350592,-1.91133 3.418967,-1.84318 -0.68681,0.705 -2.071038,1.75158 -3.300193,2.06208" /><path
         id="path10217-4-6"
         style="fill:none;stroke:#ffffff;stroke-width:0.264583px;stroke-linecap:round;stroke-linejoin:round;stroke-opacity:1"
         d="m 77.611529,135.49712 c 0.347633,1.26807 0.480712,2.99267 -0.112739,3.88425 -0.267131,-0.94727 -0.481384,-2.66925 -0.135768,-3.88899" /><ellipse
         ry="0.39901915"
         rx="0.40116644"
         cy="134.96393"
         cx="-77.758766"
         id="path5953-610-9"
         style="fill:none;fill-opacity:1;stroke:#ffffff;stroke-width:0.256;stroke-linecap:round;stroke-linejoin:round;stroke-miterlimit:4;stroke-dasharray:none;stroke-dashoffset:0;stroke-opacity:1;paint-order:normal"
         transform="rotate(-59.784775)" /></g><g
       id="g4"
       transform="matrix(0.72578709,0,0,0.72578709,16.55195,38.347759)"
       style="stroke:#000080;stroke-width:0.1;stroke-dasharray:none"><path
         id="path3-2"
         style="fill:none;stroke:#000080;stroke-width:0.1;stroke-linecap:round;stroke-linejoin:round;stroke-dasharray:none;stroke-opacity:1"
         d="m 82.14153,132.3597 c -1.07583,-0.34115 -2.613266,-1.07827 -3.314817,-2.02103 1.17854,0.24033 2.77611,0.90283 3.480955,1.79508" /><path
         id="path10217-5-5-0"
         style="fill:none;stroke:#000080;stroke-width:0.1;stroke-linecap:round;stroke-linejoin:round;stroke-dasharray:none;stroke-opacity:1"
         d="m 82.797161,132.1767 c 0.924391,-0.9347 2.350592,-1.91133 3.418967,-1.84318 -0.68681,0.705 -2.071038,1.75158 -3.300193,2.06208" /><path
         id="path10217-4-6-7"
         style="fill:none;stroke:#000080;stroke-width:0.1;stroke-linecap:round;stroke-linejoin:round;stroke-dasharray:none;stroke-opacity:1"
         d="m 82.63861,132.85127 c 0.347633,1.26807 0.480712,2.99267 -0.112739,3.88425 -0.267131,-0.94727 -0.481384,-2.66925 -0.135768,-3.88899" /><ellipse
         ry="0.39901915"
         rx="0.40116644"
         cy="137.97652"
         cx="-72.942505"
         id="path5953-610-9-6"
         style="fill:none;fill-opacity:1;stroke:#000080;stroke-width:0.1;stroke-linecap:round;stroke-linejoin:round;stroke-miterlimit:4;stroke-dasharray:none;stroke-dashoffset:0;stroke-opacity:1;paint-order:normal"
         transform="rotate(-59.784775)" /></g><path
       style="fill:none;stroke:#ffffff;stroke-width:0.307;stroke-linecap:square;stroke-miterlimit:3.3;stroke-dasharray:none"
       d="m 74.340904,138.06074 c 0.315849,0.19788 0.631686,0.39576 0.922163,0.34248 0.290476,-0.0533 0.555572,-0.35769 0.821955,-0.35769 0.266384,0 0.534009,0.30441 0.775022,0.30441 0.241014,0 0.455368,-0.30441 0.721751,-0.30441 0.266384,0 0.584751,0.30442 0.825758,0.30442 0.241008,0 0.404632,-0.30442 0.665306,-0.35199 0.260674,-0.0476 0.618375,0.16173 0.97607,0.37102"
       id="path2-2-8"
       inkscape:path-effect="#path-effect2-37-5"
       inkscape:original-d="m 74.340904,138.06074 c 0.315851,0.19788 0.631686,0.39576 0.947531,0.59364 0.26511,-0.30443 0.530203,-0.60885 0.795319,-0.91329 0.267653,0.30444 0.535276,0.60885 0.802929,0.91329 0.214375,-0.30444 0.428729,-0.60885 0.643104,-0.91329 0.318392,0.30444 0.636756,0.60886 0.955143,0.91329 0.163633,-0.30443 0.327256,-0.60885 0.490891,-0.91329 0.357713,0.2093 0.715412,0.4186 1.073108,0.62789"
       sodipodi:nodetypes="cccccccc"
       transform="translate(0.17891111,-0.06423449)" /><path
       style="fill:none;stroke:#ffffff;stroke-width:0.307;stroke-linecap:square;stroke-miterlimit:3.3;stroke-dasharray:none"
       d="m 74.340904,138.06074 c 0.315849,0.19788 0.631686,0.39576 0.922163,0.34248 0.290476,-0.0533 0.555572,-0.35769 0.821955,-0.35769 0.266384,0 0.534009,0.30441 0.775022,0.30441 0.241014,0 0.455368,-0.30441 0.721751,-0.30441 0.266384,0 0.584751,0.30442 0.825758,0.30442 0.241008,0 0.404632,-0.30442 0.665306,-0.35199 0.260674,-0.0476 0.618375,0.16173 0.97607,0.37102"
       id="path2-1-5-3"
       sodipodi:nodetypes="cccccccc"
       transform="translate(0.23069536,0.43545495)"
       inkscape:original-d="m 74.340904,138.06074 c 0.315851,0.19788 0.631686,0.39576 0.947531,0.59364 0.26511,-0.30443 0.530203,-0.60885 0.795319,-0.91329 0.267653,0.30444 0.535276,0.60885 0.802929,0.91329 0.214375,-0.30444 0.428729,-0.60885 0.643104,-0.91329 0.318392,0.30444 0.636756,0.60886 0.955143,0.91329 0.163633,-0.30443 0.327256,-0.60885 0.490891,-0.91329 0.357713,0.2093 0.715412,0.4186 1.073108,0.62789"
       inkscape:path-effect="#path-effect2-2-4-5" /><path
       style="fill:none;stroke:#ffffff;stroke-width:0.307;stroke-linecap:square;stroke-miterlimit:3.3;stroke-dasharray:none"
       d="m 74.340904,138.06074 c 0.315849,0.19788 0.631686,0.39576 0.922163,0.34248 0.290476,-0.0533 0.555572,-0.35769 0.821955,-0.35769 0.266384,0 0.534009,0.30441 0.775022,0.30441 0.241014,0 0.455368,-0.30441 0.721751,-0.30441 0.266384,0 0.584751,0.30442 0.825758,0.30442 0.241008,0 0.404632,-0.30442 0.665306,-0.35199 0.260674,-0.0476 0.618375,0.16173 0.97607,0.37102"
       id="path2-5-5-7"
       inkscape:path-effect="#path-effect2-3-8-1"
       inkscape:original-d="m 74.340904,138.06074 c 0.315851,0.19788 0.631686,0.39576 0.947531,0.59364 0.26511,-0.30443 0.530203,-0.60885 0.795319,-0.91329 0.267653,0.30444 0.535276,0.60885 0.802929,0.91329 0.214375,-0.30444 0.428729,-0.60885 0.643104,-0.91329 0.318392,0.30444 0.636756,0.60886 0.955143,0.91329 0.163633,-0.30443 0.327256,-0.60885 0.490891,-0.91329 0.357713,0.2093 0.715412,0.4186 1.073108,0.62789"
       sodipodi:nodetypes="cccccccc"
       transform="translate(0.25016605,0.95119137)" /><path
       style="fill:none;stroke:#000080;stroke-width:0.207;stroke-linecap:square;stroke-miterlimit:3.3;stroke-dasharray:none"
       d="m 74.340904,138.06074 c 0.315849,0.19788 0.631686,0.39576 0.922163,0.34248 0.290476,-0.0533 0.555572,-0.35769 0.821955,-0.35769 0.266384,0 0.534009,0.30441 0.775022,0.30441 0.241014,0 0.455368,-0.30441 0.721751,-0.30441 0.266384,0 0.584751,0.30442 0.825758,0.30442 0.241008,0 0.404632,-0.30442 0.665306,-0.35199 0.260674,-0.0476 0.618375,0.16173 0.97607,0.37102"
       id="path2-2"
       inkscape:path-effect="#path-effect2-37"
       inkscape:original-d="m 74.340904,138.06074 c 0.315851,0.19788 0.631686,0.39576 0.947531,0.59364 0.26511,-0.30443 0.530203,-0.60885 0.795319,-0.91329 0.267653,0.30444 0.535276,0.60885 0.802929,0.91329 0.214375,-0.30444 0.428729,-0.60885 0.643104,-0.91329 0.318392,0.30444 0.636756,0.60886 0.955143,0.91329 0.163633,-0.30443 0.327256,-0.60885 0.490891,-0.91329 0.357713,0.2093 0.715412,0.4186 1.073108,0.62789"
       sodipodi:nodetypes="cccccccc"
       transform="translate(0.19394302,-0.06527762)" /><path
       style="fill:none;stroke:#000080;stroke-width:0.207;stroke-linecap:square;stroke-miterlimit:3.3;stroke-dasharray:none"
       d="m 74.340904,138.06074 c 0.315849,0.19788 0.631686,0.39576 0.922163,0.34248 0.290476,-0.0533 0.555572,-0.35769 0.821955,-0.35769 0.266384,0 0.534009,0.30441 0.775022,0.30441 0.241014,0 0.455368,-0.30441 0.721751,-0.30441 0.266384,0 0.584751,0.30442 0.825758,0.30442 0.241008,0 0.404632,-0.30442 0.665306,-0.35199 0.260674,-0.0476 0.618375,0.16173 0.97607,0.37102"
       id="path2-1-5"
       sodipodi:nodetypes="cccccccc"
       transform="translate(0.24572642,0.43441172)"
       inkscape:original-d="m 74.340904,138.06074 c 0.315851,0.19788 0.631686,0.39576 0.947531,0.59364 0.26511,-0.30443 0.530203,-0.60885 0.795319,-0.91329 0.267653,0.30444 0.535276,0.60885 0.802929,0.91329 0.214375,-0.30444 0.428729,-0.60885 0.643104,-0.91329 0.318392,0.30444 0.636756,0.60886 0.955143,0.91329 0.163633,-0.30443 0.327256,-0.60885 0.490891,-0.91329 0.357713,0.2093 0.715412,0.4186 1.073108,0.62789"
       inkscape:path-effect="#path-effect2-2-4" /><path
       style="fill:none;stroke:#000080;stroke-width:0.207;stroke-linecap:square;stroke-miterlimit:3.3;stroke-dasharray:none"
       d="m 74.340904,138.06074 c 0.315849,0.19788 0.631686,0.39576 0.922163,0.34248 0.290476,-0.0533 0.555572,-0.35769 0.821955,-0.35769 0.266384,0 0.534009,0.30441 0.775022,0.30441 0.241014,0 0.455368,-0.30441 0.721751,-0.30441 0.266384,0 0.584751,0.30442 0.825758,0.30442 0.241008,0 0.404632,-0.30442 0.665306,-0.35199 0.260674,-0.0476 0.618375,0.16173 0.97607,0.37102"
       id="path2-5-5"
       inkscape:path-effect="#path-effect2-3-8"
       inkscape:original-d="m 74.340904,138.06074 c 0.315851,0.19788 0.631686,0.39576 0.947531,0.59364 0.26511,-0.30443 0.530203,-0.60885 0.795319,-0.91329 0.267653,0.30444 0.535276,0.60885 0.802929,0.91329 0.214375,-0.30444 0.428729,-0.60885 0.643104,-0.91329 0.318392,0.30444 0.636756,0.60886 0.955143,0.91329 0.163633,-0.30443 0.327256,-0.60885 0.490891,-0.91329 0.357713,0.2093 0.715412,0.4186 1.073108,0.62789"
       sodipodi:nodetypes="cccccccc"
       transform="translate(0.26519902,0.95014822)" /></g></svg>
